HIERARCHY
ROOT Hips
{
 OFFSET 0.000000 0.000000 0.000000
 CHANNELS 6 Xposition Yposition Zposition Yrotation Xrotation Zrotation
 JOINT Chest
 {
  OFFSET 0.000000 12.953391 -0.028419
  CHANNELS 3 Yrotation Xrotation Zrotation
  JOINT Chest2
  {
   OFFSET 0.000000 10.280254 0.051622
   CHANNELS 3 Yrotation Xrotation Zrotation
   JOINT Chest3
   {
    OFFSET 0.000000 9.287180 0.000000
    CHANNELS 3 Yrotation Xrotation Zrotation
    JOINT Chest4
    {
     OFFSET 0.000000 9.287180 0.000000
     CHANNELS 3 Yrotation Xrotation Zrotation
     JOINT Neck
     {
      OFFSET 0.000000 13.296264 0.000000
      CHANNELS 3 Yrotation Xrotation Zrotation
      JOINT Head
      {
       OFFSET 0.000000 8.959264 0.099003
       CHANNELS 3 Yrotation Xrotation Zrotation
       End Site
       {
        OFFSET 0.000000 17.121337 0.039303
       }
      }
     }
     JOINT RightCollar
     {
      OFFSET -3.193511 7.451388 0.000000
      CHANNELS 3 Yrotation Xrotation Zrotation
      JOINT RightShoulder
      {
       OFFSET -15.792092 0.000000 0.000000
       CHANNELS 3 Yrotation Xrotation Zrotation
       JOINT RightElbow
       {
        OFFSET -31.151839 0.000000 0.000000
        CHANNELS 3 Yrotation Xrotation Zrotation
        JOINT RightWrist
        {
         OFFSET -25.536298 0.000000 0.002321
         CHANNELS 3 Yrotation Xrotation Zrotation
         End Site
         {
          OFFSET -19.133213 0.000000 0.000000
         }
        }
       }
      }
     }
     JOINT LeftCollar
     {
      OFFSET 3.193511 7.451388 0.000000
      CHANNELS 3 Yrotation Xrotation Zrotation
      JOINT LeftShoulder
      {
       OFFSET 15.792092 0.000000 0.000000
       CHANNELS 3 Yrotation Xrotation Zrotation
       JOINT LeftElbow
       {
        OFFSET 31.151839 0.000000 0.000000
        CHANNELS 3 Yrotation Xrotation Zrotation
        JOINT LeftWrist
        {
         OFFSET 25.536298 0.000000 0.002321
         CHANNELS 3 Yrotation Xrotation Zrotation
         End Site
         {
          OFFSET 19.133213 0.000000 0.000000
         }
        }
       }
      }
     }
    }
   }
  }
 }
 JOINT RightHip
 {
  OFFSET -10.745749 0.139252 0.014209
  CHANNELS 3 Yrotation Xrotation Zrotation
  JOINT RightKnee
  {
   OFFSET 0.000000 -43.743899 -0.006071
   CHANNELS 3 Yrotation Xrotation Zrotation
   JOINT RightAnkle
   {
    OFFSET 0.000000 -43.214199 0.089931
    CHANNELS 3 Yrotation Xrotation Zrotation
    JOINT RightToe
    {
     OFFSET 0.000000 -9.699830 19.151588
     CHANNELS 3 Yrotation Xrotation Zrotation
     End Site
     {
      OFFSET 0.000000 -1.292898 4.893873
     }
    }
   }
  }
 }
 JOINT LeftHip
 {
  OFFSET 10.745749 0.139252 0.014209
  CHANNELS 3 Yrotation Xrotation Zrotation
  JOINT LeftKnee
  {
   OFFSET 0.000000 -43.743899 -0.006071
   CHANNELS 3 Yrotation Xrotation Zrotation
   JOINT LeftAnkle
   {
    OFFSET 0.000000 -43.214199 0.089931
    CHANNELS 3 Yrotation Xrotation Zrotation
    JOINT LeftToe
    {
     OFFSET 0.000000 -9.699830 19.151588
     CHANNELS 3 Yrotation Xrotation Zrotation
     End Site
     {
      OFFSET 0.000000 -1.292898 4.893873
     }
    }
   }
  }
 }
}
MOTION
Frames: 10
Frame Time: 0.016667
-70.906503 99.003696 -169.054181 9.896714 -6.822045 -0.050918 -0.906862 6.322091 0.267311 -0.406065 2.809293 0.130990 -0.406065 2.809293 0.130990 -0.305090 2.106884 0.100091 -1.989999 17.818142 0.299130 -3.768214 -3.061507 1.221734 3.179212 2.987261 7.251832 6.524235 -13.561617 77.937441 3.786910 22.505159 -2.754403 -2.345016 23.622763 -6.670616 -0.637009 -5.632817 -10.174972 -1.012792 -4.165101 -75.312261 -4.215075 6.162194 1.123850 9.466458 13.907599 4.419305 -3.746143 5.913312 -1.258074 -0.625415 6.060604 -0.954447 -4.691861 -2.807369 3.759439 -0.000000 0.000000 0.000000 3.122302 9.863903 2.025618 0.833915 2.316052 0.332711 0.047041 -2.841597 -2.584270 0.000000 0.000000 0.000000
-70.876048 99.001792 -169.075104 9.904470 -6.830063 -0.058358 -0.937308 6.351440 0.264682 -0.419550 2.822324 0.130297 -0.419550 2.822325 0.130297 -0.315201 2.116655 0.099642 -2.094780 17.795623 0.325929 -3.970886 -3.099284 1.307086 3.185062 2.976054 7.267084 6.481413 -13.521885 77.922533 3.579847 22.465483 -2.810821 -2.348247 23.621023 -6.672676 -0.615774 -5.640419 -10.192183 -0.882161 -4.113737 -75.303383 -4.026148 6.208455 1.108484 9.466118 13.923515 4.408372 -3.776634 5.899286 -1.276905 -0.622509 6.082915 -0.954682 -4.670208 -2.806217 3.777960 -0.000000 -0.000000 -0.000000 3.089768 9.865496 2.006783 0.838007 2.314286 0.329994 0.067757 -2.847373 -2.561490 0.000000 0.000000 0.000000
-70.845587 99.000098 -169.098395 9.909322 -6.830107 -0.064447 -0.969612 6.377828 0.261829 -0.433855 2.834040 0.129527 -0.433855 2.834040 0.129527 -0.325926 2.125440 0.099139 -2.195529 17.774229 0.350343 -4.165349 -3.134956 1.386711 3.190495 2.967492 7.283145 6.432736 -13.481328 77.907473 3.373399 22.425439 -2.867013 -2.350723 23.612208 -6.676713 -0.595044 -5.646017 -10.209432 -0.756147 -4.061497 -75.295975 -3.830884 6.247119 1.094519 9.467194 13.937994 4.401320 -3.806447 5.875379 -1.297615 -0.619374 6.105305 -0.953482 -4.646021 -2.804050 3.796920 0.000000 0.000000 0.000000 3.061748 9.858550 1.987108 0.840559 2.311096 0.326347 0.087770 -2.850663 -2.538791 -0.000000 -0.000000 0.000000
-70.815195 98.998376 -169.121984 9.907723 -6.823277 -0.069777 -1.000856 6.398331 0.258420 -0.447679 2.843142 0.128488 -0.447679 2.843142 0.128488 -0.336289 2.132264 0.098430 -2.291235 17.759145 0.372533 -4.349635 -3.158973 1.460363 3.194289 2.963328 7.298767 6.380415 -13.436715 77.894352 3.172967 22.391961 -2.920309 -2.353341 23.609886 -6.677985 -0.579018 -5.645143 -10.223784 -0.629342 -4.008396 -75.292030 -3.641202 6.280649 1.080342 9.470490 13.949231 4.394156 -3.842429 5.843424 -1.319720 -0.608278 6.127673 -0.951525 -4.616863 -2.801944 3.815237 0.000000 0.000000 0.000000 3.035093 9.847344 1.967085 0.847047 2.304129 0.321247 0.108327 -2.852508 -2.515905 0.000000 0.000000 0.000000
-70.784772 98.996542 -169.145635 9.895595 -6.811108 -0.074299 -1.029605 6.413652 0.254292 -0.460383 2.849944 0.127086 -0.460383 2.849944 0.127086 -0.345809 2.137364 0.097444 -2.380792 17.751323 0.391629 -4.521371 -3.169673 1.526005 3.194586 2.961578 7.313539 6.326646 -13.386714 77.883079 2.978210 22.367919 -2.970518 -2.356814 23.621825 -6.674362 -0.568065 -5.638562 -10.234237 -0.495620 -3.953714 -75.293350 -3.459332 6.306033 1.064730 9.477757 13.954034 4.387010 -3.885719 5.804096 -1.343431 -0.585606 6.150947 -0.948827 -4.581052 -2.800630 3.832306 0.000000 -0.000000 -0.000000 3.011066 9.835157 1.947271 0.861072 2.291449 0.313817 0.128387 -2.853021 -2.492620 0.000000 -0.000000 0.000000
-70.754418 98.994679 -169.169584 9.877016 -6.792067 -0.078069 -1.057295 6.423085 0.249621 -0.472609 2.854132 0.125418 -0.472608 2.854132 0.125418 -0.354969 2.140504 0.096253 -2.465344 17.749788 0.408392 -4.682925 -3.168817 1.585426 3.193240 2.964228 7.327866 6.269250 -13.332650 77.873683 2.789383 22.350501 -3.018028 -2.360537 23.640303 -6.668141 -0.561806 -5.625505 -10.241800 -0.361135 -3.898141 -75.298162 -3.283064 6.326267 1.048714 9.487214 13.955586 4.379678 -3.935173 5.756704 -1.368475 -0.554971 6.174189 -0.945366 -4.540273 -2.799381 3.848735 0.000000 0.000000 0.000000 2.988403 9.818705 1.927124 0.879029 2.274985 0.304939 0.148993 -2.852088 -2.469146 0.000000 0.000000 -0.000000
-70.724500 98.992798 -169.192465 9.860673 -6.762656 -0.081837 -1.085323 6.421585 0.244598 -0.484975 2.853461 0.123574 -0.484975 2.853461 0.123574 -0.364234 2.140000 0.094927 -2.547279 17.756854 0.425354 -4.839444 -3.151955 1.643971 3.194594 2.978977 7.341696 6.203891 -13.275250 77.868434 2.612768 22.338165 -3.061024 -2.363470 23.655675 -6.661251 -0.563312 -5.599203 -10.246559 -0.238893 -3.843804 -75.303080 -3.117657 6.352825 1.034112 9.494385 13.961709 4.367697 -3.994216 5.701036 -1.393636 -0.519477 6.194487 -0.941759 -4.497142 -2.797088 3.865265 -0.000000 -0.000000 0.000000 2.960166 9.792420 1.905495 0.895581 2.258178 0.296731 0.174511 -2.850409 -2.445858 0.000000 0.000000 0.000000
-70.695212 98.990772 -169.214646 9.852911 -6.717697 -0.086372 -1.115747 6.405780 0.239463 -0.498400 2.846433 0.121680 -0.498400 2.846433 0.121680 -0.374290 2.134728 0.093564 -2.627280 17.773504 0.442887 -4.992268 -3.117234 1.702488 3.198239 3.005848 7.356368 6.127597 -13.212133 77.866677 2.450947 22.328680 -3.097955 -2.364582 23.665294 -6.652166 -0.573779 -5.558921 -10.249176 -0.133571 -3.788991 -75.305800 -2.962900 6.390562 1.021327 9.496163 13.978127 4.346250 -4.068633 5.633286 -1.418357 -0.478701 6.210136 -0.938011 -4.452666 -2.793068 3.882277 0.000000 0.000000 0.000000 2.921497 9.749721 1.882006 0.906716 2.241860 0.289871 0.207667 -2.847776 -2.422964 0.000000 0.000000 0.000000
-70.666360 98.988727 -169.235761 9.847382 -6.662368 -0.090904 -1.146507 6.379043 0.234020 -0.511967 2.834547 0.119625 -0.511967 2.834547 0.119625 -0.384452 2.125812 0.092077 -2.704710 17.798755 0.460474 -5.140060 -3.066521 1.759817 3.204583 3.044814 7.370500 6.043371 -13.145650 77.869020 2.301297 22.324346 -3.130399 -2.364871 23.671821 -6.642336 -0.591993 -5.505383 -10.249057 -0.040491 -3.735401 -75.308636 -2.819023 6.434593 1.009878 9.495646 13.999197 4.320232 -4.152637 5.557257 -1.443068 -0.433069 6.222836 -0.934112 -4.405837 -2.788003 3.899392 0.000000 0.000000 0.000000 2.877265 9.697183 1.857106 0.916446 2.225200 0.283686 0.245738 -2.844403 -2.400250 0.000000 -0.000000 0.000000
-70.637739 98.987049 -169.253340 9.833732 -6.608701 -0.093889 -1.172818 6.346443 0.227795 -0.523549 2.820061 0.117144 -0.523549 2.820061 0.117144 -0.393123 2.114947 0.090258 -2.779980 17.831998 0.479295 -5.283958 -3.000894 1.818262 3.219198 3.103485 7.379945 5.955841 -13.083585 77.879705 2.162293 22.330381 -3.161168 -2.366252 23.673514 -6.638046 -0.617402 -5.433998 -10.244445 0.041366 -3.690277 -75.315124 -2.691946 6.481755 1.000284 9.497671 14.015662 4.299738 -4.232303 5.484147 -1.468094 -0.386957 6.234792 -0.930659 -4.356246 -2.782833 3.916207 0.000000 -0.000000 0.000000 2.835128 9.648979 1.830856 0.931462 2.209152 0.278257 0.284922 -2.841633 -2.377454 0.000000 -0.000000 0.000000
